<svg width="242" height="84" viewBox="0 0 242 84" fill="none" xmlns="http://www.w3.org/2000/svg">
<path d="M13.3409 55.6591V71H7.17045V36.0909H13.2045V49.267H13.5114C14.125 47.7898 15.0739 46.625 16.358 45.7727C17.6534 44.9091 19.3011 44.4773 21.3011 44.4773C23.1193 44.4773 24.7045 44.858 26.0568 45.6193C27.4091 46.3807 28.4545 47.4943 29.1932 48.9602C29.9432 50.4261 30.3182 52.2159 30.3182 54.3295V71H24.1477V55.2841C24.1477 53.5227 23.6932 52.1534 22.7841 51.1761C21.8864 50.1875 20.625 49.6932 19 49.6932C17.9091 49.6932 16.9318 49.9318 16.0682 50.4091C15.2159 50.875 14.5455 51.5511 14.0568 52.4375C13.5795 53.3239 13.3409 54.3977 13.3409 55.6591ZM44.142 71.5284C42.483 71.5284 40.9886 71.233 39.6591 70.642C38.3409 70.0398 37.2955 69.1534 36.5227 67.983C35.7614 66.8125 35.3807 65.3693 35.3807 63.6534C35.3807 62.1761 35.6534 60.9545 36.1989 59.9886C36.7443 59.0227 37.4886 58.25 38.4318 57.6705C39.375 57.0909 40.4375 56.6534 41.6193 56.358C42.8125 56.0511 44.0455 55.8295 45.3182 55.6932C46.8523 55.5341 48.0966 55.392 49.0511 55.267C50.0057 55.1307 50.6989 54.9261 51.1307 54.6534C51.5739 54.3693 51.7955 53.9318 51.7955 53.3409V53.2386C51.7955 51.9545 51.4148 50.9602 50.6534 50.2557C49.892 49.5511 48.7955 49.1989 47.3636 49.1989C45.8523 49.1989 44.6534 49.5284 43.767 50.1875C42.892 50.8466 42.3011 51.625 41.9943 52.5227L36.233 51.7045C36.6875 50.1136 37.4375 48.7841 38.483 47.7159C39.5284 46.6364 40.8068 45.8295 42.3182 45.2955C43.8295 44.75 45.5 44.4773 47.3295 44.4773C48.5909 44.4773 49.8466 44.625 51.0966 44.9205C52.3466 45.2159 53.4886 45.7045 54.5227 46.3864C55.5568 47.0568 56.3864 47.9716 57.0114 49.1307C57.6477 50.2898 57.9659 51.7386 57.9659 53.4773V71H52.0341V67.4034H51.8295C51.4545 68.1307 50.9261 68.8125 50.2443 69.4489C49.5739 70.0739 48.7273 70.5795 47.7045 70.9659C46.6932 71.3409 45.5057 71.5284 44.142 71.5284ZM45.7443 66.9943C46.983 66.9943 48.0568 66.75 48.9659 66.2614C49.875 65.7614 50.5739 65.1023 51.0625 64.2841C51.5625 63.4659 51.8125 62.5739 51.8125 61.608V58.5227C51.6193 58.6818 51.2898 58.8295 50.8239 58.9659C50.3693 59.1023 49.858 59.2216 49.2898 59.3239C48.7216 59.4261 48.1591 59.517 47.6023 59.5966C47.0455 59.6761 46.5625 59.7443 46.1534 59.8011C45.233 59.9261 44.4091 60.1307 43.6818 60.4148C42.9545 60.6989 42.3807 61.0966 41.9602 61.608C41.5398 62.108 41.3295 62.7557 41.3295 63.5511C41.3295 64.6875 41.7443 65.5455 42.5739 66.125C43.4034 66.7045 44.4602 66.9943 45.7443 66.9943ZM64.4432 71V36.0909H70.6136V49.1477H70.8693C71.1875 48.5114 71.6364 47.8352 72.2159 47.1193C72.7955 46.392 73.5795 45.7727 74.5682 45.2614C75.5568 44.7386 76.8182 44.4773 78.3523 44.4773C80.375 44.4773 82.1989 44.9943 83.8239 46.0284C85.4602 47.0511 86.7557 48.5682 87.7102 50.5795C88.6761 52.5795 89.1591 55.0341 89.1591 57.9432C89.1591 60.8182 88.6875 63.2614 87.7443 65.2727C86.8011 67.2841 85.517 68.8182 83.892 69.875C82.267 70.9318 80.4261 71.4602 78.3693 71.4602C76.8693 71.4602 75.625 71.2102 74.6364 70.7102C73.6477 70.2102 72.8523 69.608 72.25 68.9034C71.6591 68.1875 71.1989 67.5114 70.8693 66.875H70.5114V71H64.4432ZM70.4943 57.9091C70.4943 59.6023 70.733 61.0852 71.2102 62.358C71.6989 63.6307 72.3977 64.625 73.3068 65.3409C74.2273 66.0455 75.3409 66.3977 76.6477 66.3977C78.0114 66.3977 79.1534 66.0341 80.0739 65.3068C80.9943 64.5682 81.6875 63.5625 82.1534 62.2898C82.6307 61.0057 82.8693 59.5455 82.8693 57.9091C82.8693 56.2841 82.6364 54.8409 82.1705 53.5795C81.7045 52.3182 81.0114 51.3295 80.0909 50.6136C79.1705 49.8977 78.0227 49.5398 76.6477 49.5398C75.3295 49.5398 74.2102 49.8864 73.2898 50.5795C72.3693 51.2727 71.6705 52.2443 71.1932 53.4943C70.7273 54.7443 70.4943 56.2159 70.4943 57.9091ZM94.4048 71V44.8182H100.575V71H94.4048ZM97.5071 41.1023C96.5298 41.1023 95.6889 40.7784 94.9844 40.1307C94.2798 39.4716 93.9276 38.6818 93.9276 37.7614C93.9276 36.8295 94.2798 36.0398 94.9844 35.392C95.6889 34.733 96.5298 34.4034 97.5071 34.4034C98.4957 34.4034 99.3366 34.733 100.03 35.392C100.734 36.0398 101.087 36.8295 101.087 37.7614C101.087 38.6818 100.734 39.4716 100.03 40.1307C99.3366 40.7784 98.4957 41.1023 97.5071 41.1023ZM119.994 44.8182V49.5909H104.943V44.8182H119.994ZM108.659 38.5455H114.83V63.125C114.83 63.9545 114.955 64.5909 115.205 65.0341C115.466 65.4659 115.807 65.7614 116.227 65.9205C116.648 66.0795 117.114 66.1591 117.625 66.1591C118.011 66.1591 118.364 66.1307 118.682 66.0739C119.011 66.017 119.261 65.9659 119.432 65.9205L120.472 70.7443C120.142 70.858 119.67 70.983 119.057 71.1193C118.455 71.2557 117.716 71.3352 116.841 71.358C115.295 71.4034 113.903 71.1705 112.665 70.6591C111.426 70.1364 110.443 69.3295 109.716 68.2386C109 67.1477 108.648 65.7841 108.659 64.1477V38.5455ZM145.473 51.7386L139.848 52.3523C139.689 51.7841 139.411 51.25 139.013 50.75C138.626 50.25 138.104 49.8466 137.445 49.5398C136.786 49.233 135.979 49.0795 135.024 49.0795C133.74 49.0795 132.661 49.358 131.786 49.9148C130.922 50.4716 130.496 51.1932 130.507 52.0795C130.496 52.8409 130.774 53.4602 131.342 53.9375C131.922 54.4148 132.876 54.8068 134.206 55.1136L138.672 56.0682C141.149 56.6023 142.99 57.4489 144.195 58.608C145.411 59.767 146.024 61.2841 146.036 63.1591C146.024 64.8068 145.541 66.2614 144.587 67.5227C143.643 68.7727 142.331 69.75 140.649 70.4545C138.967 71.1591 137.036 71.5114 134.854 71.5114C131.649 71.5114 129.07 70.8409 127.115 69.5C125.161 68.1477 123.996 66.267 123.621 63.858L129.638 63.2784C129.911 64.4602 130.49 65.3523 131.376 65.9545C132.263 66.5568 133.416 66.858 134.837 66.858C136.303 66.858 137.479 66.5568 138.365 65.9545C139.263 65.3523 139.712 64.608 139.712 63.7216C139.712 62.9716 139.422 62.3523 138.842 61.8636C138.274 61.375 137.388 61 136.183 60.7386L131.717 59.8011C129.206 59.2784 127.348 58.3977 126.143 57.1591C124.939 55.9091 124.342 54.3295 124.354 52.4205C124.342 50.8068 124.78 49.4091 125.666 48.2273C126.564 47.0341 127.808 46.1136 129.399 45.4659C131.001 44.8068 132.848 44.4773 134.939 44.4773C138.007 44.4773 140.422 45.1307 142.183 46.4375C143.956 47.7443 145.053 49.5114 145.473 51.7386ZM166.993 53.9205V59H151.277V53.9205H166.993ZM173.483 71V44.8182H179.381V49.267H179.688C180.233 47.767 181.136 46.5966 182.398 45.7557C183.659 44.9034 185.165 44.4773 186.915 44.4773C188.688 44.4773 190.182 44.9091 191.398 45.7727C192.625 46.625 193.489 47.7898 193.989 49.267H194.261C194.841 47.8125 195.818 46.6534 197.193 45.7898C198.58 44.9148 200.222 44.4773 202.119 44.4773C204.528 44.4773 206.494 45.2386 208.017 46.7614C209.54 48.2841 210.301 50.5057 210.301 53.4261V71H204.114V54.3807C204.114 52.7557 203.682 51.5682 202.818 50.8182C201.955 50.0568 200.898 49.6761 199.648 49.6761C198.159 49.6761 196.994 50.142 196.153 51.0739C195.324 51.9943 194.909 53.1932 194.909 54.6705V71H188.858V54.125C188.858 52.7727 188.449 51.6932 187.631 50.8864C186.824 50.0795 185.767 49.6761 184.46 49.6761C183.574 49.6761 182.767 49.9034 182.04 50.358C181.313 50.8011 180.733 51.4318 180.301 52.25C179.869 53.0568 179.653 54 179.653 55.0795V71H173.483ZM228.152 71.5114C225.527 71.5114 223.26 70.9659 221.351 69.875C219.453 68.7727 217.993 67.2159 216.97 65.2045C215.947 63.1818 215.436 60.8011 215.436 58.0625C215.436 55.3693 215.947 53.0057 216.97 50.9716C218.004 48.9261 219.447 47.3352 221.3 46.1989C223.152 45.0511 225.328 44.4773 227.828 44.4773C229.442 44.4773 230.964 44.7386 232.396 45.2614C233.839 45.7727 235.112 46.5682 236.214 47.6477C237.328 48.7273 238.203 50.1023 238.839 51.7727C239.476 53.4318 239.794 55.4091 239.794 57.7045V59.5966H218.334V55.4375H233.879C233.868 54.2557 233.612 53.2045 233.112 52.2841C232.612 51.3523 231.913 50.6193 231.016 50.0852C230.129 49.5511 229.095 49.2841 227.913 49.2841C226.652 49.2841 225.544 49.5909 224.589 50.2045C223.635 50.8068 222.891 51.6023 222.357 52.5909C221.834 53.5682 221.567 54.642 221.555 55.8125V59.4432C221.555 60.9659 221.834 62.2727 222.391 63.3636C222.947 64.4432 223.726 65.2727 224.726 65.8523C225.726 66.4205 226.896 66.7045 228.237 66.7045C229.135 66.7045 229.947 66.5795 230.675 66.3295C231.402 66.0682 232.033 65.6875 232.567 65.1875C233.101 64.6875 233.504 64.0682 233.777 63.3295L239.538 63.9773C239.175 65.5 238.482 66.8295 237.459 67.9659C236.447 69.0909 235.152 69.9659 233.572 70.5909C231.993 71.2045 230.186 71.5114 228.152 71.5114Z" fill="white"/>
<rect x="0.5" y="0.499908" width="15" height="15" rx="3.5" fill="#18181B" stroke="#27272A"/>
<rect x="20.5" y="0.499908" width="15" height="15" rx="3.5" fill="#4C1D95" stroke="#6D28D9"/>
<rect x="40.5" y="0.499908" width="15" height="15" rx="3.5" fill="#5B21B6" stroke="#7C3AED"/>
<rect x="60.5" y="0.499908" width="15" height="15" rx="3.5" fill="#6D28D9" stroke="#8B5CF6"/>
<rect x="80.5" y="0.499908" width="15" height="15" rx="3.5" fill="#7C3AED" stroke="#A78BFA"/>
<rect x="100.5" y="0.499908" width="15" height="15" rx="3.5" fill="#8B5CF6" stroke="#C4B5FD"/>
</svg>
